<?xml version="1.0" encoding="UTF-8"?><svg id="a" xmlns="http://www.w3.org/2000/svg" viewBox="0 0 800 600.7"><path d="M685.38,361.28c3.29,22.73-14.36,36.92-28.4,37.96-10.46,.78-19.14-3.05-26.11-10.74-6.97-7.68-8.54-16.98-7.32-27.16h-6.27c-.9,3.46-1.88,7.21-2.76,10.61h-7.27c-1.04-3.33-2.17-6.9-3.34-10.66h-5.75c1.49,11.67-1.73,21.8-10.46,29.91-6.77,6.29-14.78,8.76-23.99,8.18-12.88-.8-30.56-14-27.7-37.95h-6.75c-.87,3.42-2.07,6.8-2.52,10.27-.43,3.29-1.96,3.93-4.97,3.92-32.95-.07-65.89,0-98.84,.02-6.72,0-13.43,0-20.65,0v-13.09h-37.6v9.46h-5.61v-9.48h-56.79c-.21,2.95-.43,5.93-.68,9.37-5.1,.38-10.17,1.03-15.25,1.09-14.42,.16-28.84,.07-43.27,.08-9.37,0-18.75,0-28.37,0v-41.75h81.99c-.24,3.41,1.97,3.99,5.07,3.69v7.76h54.67c-.36-4.37-.72-8.64-1.12-13.39h12.61c-.31,4.36-.62,8.73-.95,13.35h35.01c.12-2.73,.24-5.46,.39-8.78,2.43,0,4.63,0,6.83,0,41.41,.03,82.83,.23,124.24-.14,5.16-.05,10.29-3.09,15.44-4.75-.1-.34-.2-.69-.29-1.03h-130.59c-.16,1.1-.31,2.21-.49,3.46h-3.66c.39-1.23,.68-2.17,1.05-3.35h-3.56c.23,1.09,.44,2.04,.66,3.1-.28,.12-.78,.47-.9,.37-1.04-.86-2.01-1.81-3.65-3.33H230.47V167.54H752.15v161.27c-19.1-.41-37.91-.82-56.85-1.23-.33,1.86-.53,2.96-.74,4.16-2.25-7.28-8.09-2.88-12.21-3.78-2.9-.63-6.05-.12-9.28,.31,3.52,2.66,6.71,5.78,11.68,5.72,7.65-.09,15.3-.02,23.22-.02,.2,1.43,.37,2.65,.53,3.82,1.5,.16,2.79,.29,4.42,.47v9.99c-1.28,.12-2.56,.25-4.29,.41v33.43h-7.43c-.98-6.82-1.99-13.79-3-20.83h-12.83Zm-326.58-11.85c-1.62-.07-2.92-.18-4.21-.18-15.61,0-31.23,.01-46.84,.03q-6.47,0-5.55,6.83h56.6v-6.68Zm43.4,.1h-37.32v6.84h37.32v-6.84Zm185.47-21.53c18.15,11.41,32.58,10.03,47.29,0h-47.29Zm-349.19,10.53v24.81h.77v-22.08h49.38c-1.81-.85-3.61-.85-5.41-.85-13.49,.02-26.97,.09-40.46-.04-1.43-.01-2.85-1.19-4.29-1.84Zm51.91-.73v30.33c.29,0,.59,0,.88,0v-26.35c1.23-.2,2.13-.35,2.73-.45-1.28-1.25-2.51-2.45-3.61-3.53Zm9.65,32.98v-8.07h-3.5c1.3,2.62-1.74,6.57,3.5,8.07Zm-2.92-21.19v6.43c2.49,.84,3.41-.08,3.06-2.33-.28-1.78,1.31-4.96-3.06-4.1Zm-1.52-11.62c.14,1.72,.26,3.19,.41,4.91,1.38-.11,2.45-.19,3.56-.28,.07-1.62,.13-2.88,.2-4.36-1.44-.1-2.68-.18-4.17-.28Zm-58.83,3.32l-.02-.54h-19.62v.54h19.64Z"/><path d="M84.33,290.61l-7.42-.73c.36-3.59-.52-8.3,1.37-11.22,4.69-7.27,4.47-15.59,6.67-23.34,2.22-7.83,3.66-15.88,5.7-23.77,.79-3.08,2.27-5.98,3.58-9.33-2.79,.46-4.87,.8-7.51,1.24,1.23,.79,2.13,1.23,2.87,1.86,1.64,1.38,2.43,2.6-.05,4.22-1.96,1.28-3.43,3.27-5.23,4.82-3.77,3.25-7.53,3.82-11.62,1.49,1.74-2.6,3.77-5.03,5.13-7.79,4.41-8.96,13.15-8.01,20.5-8.1,36.36-.44,72.73-.2,109.09-.18,.51,0,1.03,.16,2.11,.33,.76,32.8,1.53,65.64,2.31,98.97-4.01,.21-7.79,.55-11.56,.59-13.62,.11-27.26-.33-40.85,.4-5.43,.29-10.73,3.05-16.04,4.83-.7,.23-1.1,1.33-1.64,2.03-.58,.27-1.16,.55-1.74,.82-3.24,2.76-6.86,5.19-9.59,8.39-1.63,1.91-2.9,2.84-5.37,2.76-7.4-.22-14.82-.11-22.22-.34-5.15-.16-5.14-.32-5.03,4.72,.02,1.04,0,2.07,0,3.56h28.46c-.4,2.79-.73,5.11-1.1,7.68h-30.6c0-3.66,.05-7.19-.01-10.72-.06-3.32-.23-6.63-.36-9.94l-1.54,.1-.58,4.69c-4.89,.27-9.7,.53-14.95,.82,1.34-7.39,7.61-4.28,11.68-5.86v-7.83c-1.93-.5-3.69-.96-5.46-1.42-.14-.17-.3-.33-.47-.47-.34-1.89-1.01-3.79-.98-5.67,.16-7.96,.52-15.91,.81-23.86l-.11,.19c2.04-2.44,3.76-5.42,8.41-4.58v33.95c1.43,.23,2.21,.47,2.98,.47,12.83,0,25.66,.07,38.48-.16,2.53-.05,5.23-.91,7.51-2.08,6.81-3.48,13.45-7.28,20.13-11.01,.78-.43,1.39-1.15,2.08-1.74-7.67,3.54-14.83,7.65-22.18,11.38-2.48,1.26-5.45,2.12-8.21,2.18-11.76,.25-23.54,.14-35.31,.13-1.26,0-2.52-.17-4.06-.28v-33.88h70.14c-1.1-1.07-2.44-1.56-3.78-1.56-20.89-.04-41.79-.03-62.68-.02-1.26,0-2.52,0-3.76,0v-10.99c3.62-.69,7.12-1.26,10.57-2.03,3.15-.7,3.78-2.57,2-5.35-2.28-3.56-.79-11.1,2.69-13.38-.17-1.39,.08-3.77-.58-4.07-3.18-1.41-1.86-4-2.04-6.13-.19-2.17-.04-4.38-.04-6.57l-1.56-.06c-1.48,10.71-2.96,21.42-4.47,32.35,1.85,.22,3.78,.45,5.71,.68-2.87,1.41-5.74,2.39-8.67,2.6-3.68,.26-5.04,1.77-4.63,5.43,.54,4.83,.32,9.4-6.23,9.87-.31,.02-.59,.5-.89,.76l.16,.15Zm111.05-2.46c-.17-.19-.34-.55-.51-.55-10-.03-19.99-.03-29.99,0-.16,0-.32,.37-.48,.57,.02,7.13,.05,14.26,.07,21.4-1.38,2.7,1.19,1.51,1.75,1.52,9.05,.11,18.1,.1,27.15,.05,.94,0,1.88-.51,2.82-.78,1-1.31,2.76-2.56,2.85-3.93,.32-4.86,.32-9.77-.14-14.61-.13-1.32-2.3-2.45-3.53-3.66Zm-86.73-16.45l.54,1.37c14.64-2.42,29.3-4.78,43.92-7.32,2.69-.47,4.37-2.36,4.35-5.34-.05-7.53,.01-15.06-.2-22.59-.09-3.17-2.17-5.25-5.31-5.28-13.85-.14-27.71-.06-41.75-.06,.12,1.58,.22,2.86,.34,4.34,4.02-.18,5.29,1.93,5.35,5.6,.12,7.28,.25,7.27-5.47,9.36v4.67c4.79-.99,5.08,1.97,4.93,5.36-.07,1.58-.04,3.17,.04,4.76,.11,2.08-.72,3.1-2.87,3.43-1.35,.21-2.59,1.12-3.88,1.72Zm57.86-24.07h.18c0,3.69-.01,7.38,0,11.07,.01,3.19,1.53,4.9,4.83,4.88,4.48-.02,8.97,.11,13.45,0,4.17-.11,6.09-1.98,6.08-6.12-.02-6.59-.19-13.18-.5-19.76-.18-3.92-2.37-5.89-6.38-6-4.08-.11-8.17,0-12.26,0-3.52,0-5.42,1.63-5.41,5.26,0,3.56,0,7.12,0,10.68Zm-59.31-14.75c-3.36-.97-4.23,.42-3.69,3.54,1.19,.19,2.4,.38,3.9,.62-.08-1.63-.14-2.89-.2-4.16Z"/><path d="M140,327.73c.58-.27,1.16-.54,1.74-.82,7.56-5.13,16.12-6.21,24.96-6.2,14.93,.02,29.85,0,45.46,0v52.75c-5.25-2.27-6.32-7.41-7.39-12.79h-6.28c1.46,12.52-1.75,23.45-11.96,31.64-6.46,5.18-13.77,7.68-22.09,6.85-15.02-1.5-31.72-15.49-28.27-38.97-1.46,.43-2.79,.82-4.14,1.22-.34,3.76-.77,7.3-.95,10.86-.17,3.44-1.8,5.39-5.17,5.93-.39,.06-.78,.23-1.17,.22-14.02-.07-28.04-.13-42.05-.26-3.04-.03-5.05-1.79-5.48-4.74-.53-3.62-.65-7.29-.98-11.27h16.39c.15,2.99,.31,5.97,.48,9.33,9.99,0,19.74,.09,29.49-.13,.99-.02,2.43-1.72,2.81-2.92,.53-1.71,.38-3.67,.32-5.51-.09-2.81,.71-4.69,3.93-4.84-1.51,.17-3.03,.34-4.76,.54-.18,3.77-.35,7.26-.54,11.02h-29.61v-13.95h31.27c.4-2.83,.68-5.41,1.15-7.95,1.23-6.68,3.82-12.59,9.54-16.75,1.24-.9,2.21-2.17,3.3-3.26Z"/><path d="M108.61,208.38c4.48-.93,8.94-2.57,13.45-2.68,21.27-.53,42.54-.67,63.82-.87,7.97-.08,8.64,.68,8.69,8.47,0,1.71,0,3.42,0,5.48H102.59v-3.16c2.01-2.41,4.02-4.82,6.02-7.22Z"/><path d="M108.61,208.38c-2.01,2.41-4.02,4.82-6.02,7.22-1.36,2.89-3.29,4.61-6.7,3.2,1.35-8.54,6.53-15.32,12.5-17.23,.97-1.78,1.39-3.05,2.21-3.99,2.19-2.5,4.85-4.63,6.75-7.31,2.47-3.47,4.39-7.34,7.36-10.58-2.04,4.03-4.16,8.02-6.1,12.1-2.14,4.51,.07,7.79,5.05,7.35,12.88-1.14,25.72-2.63,38.61-3.64,11.98-.94,23.99-1.57,36-2.06,5.63-.23,7.41,1.6,8.29,7.31,.9,5.85,1.73,11.71,2.64,17.95h-13.35c-.13-2.99-.38-6.11-.38-9.23,.01-3.87-2.01-5.6-5.63-5.57-21.94,.15-43.88,.3-65.82,.62-4.05,.06-8.11,.76-12.11,1.49-1.21,.22-2.21,1.54-3.31,2.36Z"/><path d="M714.92,334.14c7.09,2.83,9.24,5.73,9.32,12.48,.07,6.02,.02,12.05,.02,18.27h-8.58c.51-10.3-4.25-20.22-.75-30.75Z"/><path d="M76.57,361.09v-5.51c2.98-.34,5.83-.66,8.95-1.01v-10.03c-2.35-2.43-7.25,1.51-9.05-4.25,5.56-.27,10.6-.52,16.33-.8,0,6.52,.09,12.54-.11,18.56-.03,.82-1.46,2.19-2.34,2.28-4.44,.44-8.92,.53-13.79,.77Z"/><path d="M82.85,323.89c.17,.14,.33,.3,.47,.47,.53,.51,1.09,.99,1.59,1.52,.77,.83,1.5,1.7,2.24,2.55-1.04,.08-2.14,.43-3.11,.21-5.38-1.26-7.56-3.96-7.66-9.88-.12-6.99-.07-13.99,.11-20.98,.17-6.48,1.08-7.2,7.85-7.16l-.16-.15-1.6,4.08,.11-.19c-.24,.28-.69,.56-.7,.85-.33,8.54-.69,17.09-.84,25.64-.02,1,1.11,2.03,1.7,3.04Z"/><path d="M98.61,345.97v-6.09h29.46c-.66,2.15-1.26,4.09-1.88,6.09h-27.58Z"/><path d="M167.62,246.94c0-3.17,.06-6.33-.02-9.5-.08-3.17,1.52-4.65,4.53-4.7,3.96-.07,7.92-.13,11.87,0,3.24,.1,5.06,1.77,5.14,5.22,.15,6.33,.35,12.66,.68,18.98,.19,3.76-1.77,5.36-5.16,5.5-4.22,.18-8.44,.22-12.66,.18-3.2-.03-4.3-2.14-4.34-4.99-.05-3.56-.01-7.12-.01-10.69h-.02Z"/><path d="M195.32,288.85c.81,.6,2.31,1.17,2.33,1.8,.2,5.51,.15,11.02,.17,16.54l-3.19,1.55h-29.17v-18.98c3.26,0,6.63-.05,9.99,.01,6.58,.11,13.16,.29,19.74,.38,.04,0,.08-.84,.12-1.29Z"/><path d="M194.63,308.73l3.19-1.55c-.56,1.04-1.12,2.08-1.67,3.12-9.55,0-19.09,.04-28.63-.01-1.06,0-2.11-.51-3.17-.79,8.73,0,17.46,.04,26.2-.02,1.37-.01,2.73-.49,4.1-.75Z"/><path d="M164.35,288.08c10.36,0,20.72-.01,31.08-.02v.89c-8.95-.07-17.91-.11-26.86-.23-1.41-.02-2.81-.41-4.21-.63Z"/></svg>